<?xml version="1.0" standalone="no"?>
<!DOCTYPE svg PUBLIC "-//W3C//DTD SVG 20010904//EN"
 "http://www.w3.org/TR/2001/REC-SVG-20010904/DTD/svg10.dtd">
<svg version="1.0" xmlns="http://www.w3.org/2000/svg"
 width="305.000000pt" height="237.000000pt" viewBox="0 0 305.000000 237.000000"
 preserveAspectRatio="xMidYMid meet">

<g transform="translate(0.000000,237.000000) scale(0.100000,-0.100000)"
fill="#000000" stroke="none">
<path d="M1632 2320 c-30 -33 -91 -160 -122 -256 l-28 -89 -109 -6 c-59 -3
-131 -11 -158 -18 -47 -13 -56 -12 -155 19 -214 66 -257 78 -334 95 -71 15
-80 15 -94 1 -14 -13 -12 -23 16 -93 17 -43 56 -134 87 -203 55 -124 56 -126
65 -260 25 -354 79 -537 193 -654 l53 -54 -18 -65 c-28 -105 -48 -287 -48
-448 0 -131 2 -149 16 -149 14 0 16 8 11 53 -9 85 13 374 36 487 l22 105 34 0
c47 0 51 21 6 29 -64 12 -146 103 -188 206 -48 119 -69 230 -87 460 -13 171
-15 178 -50 250 -48 99 -133 310 -127 316 9 10 146 -23 327 -79 91 -27 174
-50 185 -50 11 0 58 8 105 16 47 9 117 17 156 17 l71 0 38 108 c39 110 81 202
109 237 16 20 16 20 41 -10 14 -16 95 -169 180 -340 150 -300 164 -336 211
-525 16 -65 18 -196 4 -260 -21 -95 -84 -203 -134 -230 -25 -13 -36 -40 -17
-40 12 0 61 39 93 75 l27 30 54 -56 c65 -67 150 -190 184 -267 14 -31 32 -91
40 -132 15 -80 20 -287 8 -357 -5 -35 -4 -43 8 -43 12 0 16 26 22 135 8 147
-2 243 -35 357 -25 83 -120 229 -208 321 l-66 67 17 35 c23 49 47 157 47 215
0 66 -24 185 -61 305 -32 104 -264 586 -339 703 -42 66 -58 74 -88 42z"/>
<path d="M1629 2118 c-22 -42 -67 -183 -61 -190 7 -8 244 -78 262 -78 36 0
-33 145 -111 234 -55 61 -72 68 -90 34z m76 -58 c37 -45 105 -156 105 -172 0
-4 -12 -3 -27 2 -16 5 -63 19 -105 31 -46 13 -78 27 -78 35 0 19 51 154 59
154 3 -1 24 -23 46 -50z"/>
<path d="M750 1926 c0 -28 66 -216 84 -241 10 -15 15 -14 41 11 61 55 165 156
165 160 0 15 -229 94 -272 94 -12 0 -18 -7 -18 -24z m142 -37 c54 -17 98 -35
98 -39 0 -10 -126 -130 -137 -130 -8 0 -73 173 -73 193 0 11 7 9 112 -24z"/>
<path d="M1487 1629 c-24 -14 -11 -32 14 -18 11 5 32 9 47 7 15 -2 29 2 32 7
7 14 -71 17 -93 4z"/>
<path d="M993 1570 c-37 -15 -27 -20 38 -20 44 0 60 3 57 13 -5 15 -65 20 -95
7z"/>
<path d="M1502 1450 c-62 -38 -80 -127 -37 -178 47 -56 134 -50 200 12 39 37
45 71 19 115 -39 66 -120 89 -182 51z m139 -39 c51 -51 32 -112 -44 -140 -42
-16 -71 -13 -101 10 -30 24 -35 72 -11 119 17 34 27 38 83 39 35 1 49 -5 73
-28z"/>
<path d="M1527 1382 c-10 -10 -17 -28 -17 -39 0 -23 29 -53 51 -53 26 0 59 31
59 55 0 50 -60 73 -93 37z"/>
<path d="M1014 1391 c-38 -16 -64 -60 -64 -106 0 -37 5 -48 37 -75 34 -30 40
-32 101 -28 58 4 68 8 93 36 41 46 39 91 -4 139 -30 32 -40 36 -88 39 -30 2
-64 0 -75 -5z m141 -46 c32 -31 34 -86 5 -115 -25 -25 -124 -28 -157 -5 -43
30 -37 110 10 133 12 6 44 11 70 11 38 1 53 -4 72 -24z"/>
<path d="M1053 1340 c-50 -20 -32 -100 22 -100 53 0 77 82 29 100 -14 6 -26
10 -27 9 -1 0 -12 -4 -24 -9z"/>
<path d="M1273 1198 c-43 -14 -43 -42 0 -64 17 -9 35 -22 39 -28 14 -20 9
-103 -7 -116 -19 -16 -19 -49 0 -56 25 -10 103 6 127 26 31 25 15 52 -38 65
-45 11 -54 20 -54 58 0 19 10 36 30 54 34 28 38 49 13 57 -45 12 -81 13 -110
4z m97 -26 c0 -4 -9 -13 -21 -20 -17 -11 -27 -11 -51 -1 -21 9 -26 14 -16 20
16 11 88 12 88 1z m45 -182 c6 -10 -1 -14 -48 -24 -26 -6 -27 -5 -17 14 11 21
54 28 65 10z"/>
<path d="M1512 1195 c-40 -17 -35 -39 5 -24 15 5 63 11 107 13 46 2 82 9 84
15 6 17 -156 13 -196 -4z"/>
<path d="M1007 1143 c-16 -16 -1 -19 93 -20 94 0 121 7 84 21 -21 8 -169 8
-177 -1z"/>
<path d="M1510 1132 c0 -12 39 -19 158 -28 62 -4 92 -3 92 4 0 15 -22 20 -142
27 -69 4 -108 3 -108 -3z"/>
<path d="M1135 1083 c-55 -12 -85 -26 -85 -39 0 -17 -4 -18 65 6 32 11 66 20
77 20 10 0 18 5 18 10 0 10 -37 12 -75 3z"/>
<path d="M1503 1076 c4 -11 166 -64 200 -65 10 -1 17 4 15 11 -3 7 -53 24
-112 39 -67 17 -106 23 -103 15z"/>
<path d="M1168 1022 c-26 -15 -48 -33 -48 -39 0 -7 2 -13 5 -13 12 0 105 63
105 71 0 14 -10 10 -62 -19z"/>
<path d="M1598 454 c-9 -9 -9 -176 0 -253 4 -31 13 -56 20 -59 10 -3 12 9 7
54 -4 33 -10 106 -13 162 -4 57 -10 100 -14 96z"/>
<path d="M1266 409 c-5 -13 -36 -241 -36 -260 0 -5 6 -9 13 -9 10 0 17 35 27
135 7 74 10 138 7 142 -4 3 -9 0 -11 -8z"/>
<path d="M2021 313 c-13 -48 -18 -78 -25 -130 -5 -34 -3 -43 9 -43 10 0 15 10
15 28 1 15 7 54 15 87 8 33 15 68 15 78 0 31 -19 18 -29 -20z"/>
</g>
</svg>
